# xmcd
#
# Track frame offsets:
#	150
#	15837
#	31137
#	47990
#	64170
#	76400
#	92585
#	107735
#	122975
#	138225
#	155282
#	172075
#	186102
#	198875
#	215225
#	228162
#
# Disc length: 3225 seconds
#
# Revision: 4
# Processed by: cddbd v1.5.2PL0 Copyright (c) Steve Scherf et al.
# Submitted via: EasyCDDAExtractor 15.2.5.1
#
DISCID=d20c9710
DTITLE=Engelbert - Engelbert Vol. 3
DYEAR=1900
DGENRE=
TTITLE0=As Time Goes By
TTITLE1=Acapulco
TTITLE2=Always On My Mind
TTITLE3=Sorry Seems To Be The Hardest Word
TTITLE4=You Are So Beautiful
TTITLE5=I Am In Love Again
TTITLE6=Love Story
TTITLE7=A Man Without Love
TTITLE8=Sentimental Lady
TTITLE9=The Very Thought Of You
TTITLE10=You Belong To My Herat
TTITLE11=Red Sails In The Sunset
TTITLE12=You'll Never Know
TTITLE13=I Wish I Knew
TTITLE14=Embraceable You
TTITLE15=I Don't Want To Walk Without You
EXTD=
EXTT0=
EXTT1=
EXTT2=
EXTT3=
EXTT4=
EXTT5=
EXTT6=
EXTT7=
EXTT8=
EXTT9=
EXTT10=
EXTT11=
EXTT12=
EXTT13=
EXTT14=
EXTT15=
PLAYORDER=
